<?xml version="1.0" standalone="no"?>
<!DOCTYPE svg PUBLIC "-//W3C//DTD SVG 20010904//EN"
 "http://www.w3.org/TR/2001/REC-SVG-20010904/DTD/svg10.dtd">
<svg version="1.0" xmlns="http://www.w3.org/2000/svg"
 width="275.000000pt" height="275.000000pt" viewBox="0 0 275.000000 275.000000"
 preserveAspectRatio="xMidYMid meet">
<metadata>
Created by potrace 1.11, written by Peter Selinger 2001-2013
</metadata>
<g transform="translate(0.000000,275.000000) scale(0.100000,-0.100000)"
fill="#000000" stroke="none">
<path d="M686 2084 c-98 -31 -159 -85 -202 -178 -30 -66 -36 -158 -16 -231 17
-60 65 -130 113 -165 117 -84 318 -78 424 13 l38 33 -36 37 -35 38 -30 -26
c-89 -75 -224 -74 -306 3 -81 77 -89 232 -15 316 54 62 157 91 233 66 31 -10
36 -16 36 -43 1 -43 21 -67 61 -73 69 -11 102 63 60 132 -45 74 -213 114 -325
78z"/>
<path d="M2008 2090 c-79 -24 -138 -96 -138 -168 0 -88 57 -145 197 -197 102
-38 142 -91 108 -145 -14 -23 -63 -38 -116 -36 -70 3 -79 9 -79 52 0 22 -7 40
-20 51 -51 44 -110 14 -110 -57 0 -132 274 -194 388 -87 37 34 54 76 55 131 1
93 -40 135 -189 195 -45 18 -91 42 -103 55 -45 47 -11 111 63 119 47 5 99 -10
93 -27 -7 -18 20 -76 35 -77 7 0 21 -2 32 -4 23 -5 66 37 66 65 0 32 -24 72
-58 97 -51 38 -158 53 -224 33z"/>
<path d="M1120 2039 c0 -46 2 -50 23 -49 49 4 47 13 47 -218 l0 -219 -32 1
c-32 1 -33 0 -36 -46 l-3 -47 93 -3 c51 -2 110 -2 131 0 l38 3 -3 47 -3 47
-37 0 -38 -1 0 88 0 88 145 0 145 0 0 -88 0 -89 -27 2 c-43 3 -48 -2 -50 -49
l-2 -44 77 -4 c42 -2 100 -2 128 0 56 3 66 17 54 72 -4 20 -11 25 -35 25 l-30
0 -3 218 -2 217 34 0 c37 0 45 15 37 73 l-3 27 -128 0 -127 0 0 -51 0 -50 36
3 36 3 0 -85 0 -85 -140 0 -140 0 -3 83 -3 82 41 0 40 0 0 50 0 50 -130 0
-130 0 0 -51z"/>
<path d="M110 996 l0 -336 70 0 69 0 3 101 3 101 70 3 c119 5 194 48 233 133
49 108 11 242 -86 299 -45 27 -53 28 -204 32 l-158 3 0 -336z m247 205 c36 -2
73 -42 79 -86 10 -82 -35 -125 -130 -125 l-56 0 0 109 0 109 43 -3 c23 -2 52
-4 64 -4z"/>
<path d="M670 995 l0 -335 70 0 70 0 0 110 0 110 44 0 44 0 62 -110 61 -110
80 0 80 0 -24 43 c-13 23 -38 66 -55 95 -67 112 -66 106 -24 136 66 46 96 133
78 226 -15 72 -45 113 -106 143 -47 24 -61 25 -215 27 l-165 1 0 -336z m286
206 c28 -3 64 -51 64 -85 0 -84 -38 -113 -147 -115 l-63 -1 0 103 0 103 68 -2
c37 -1 72 -2 78 -3z"/>
<path d="M1279 1313 c-1 -22 -1 -623 0 -640 1 -9 22 -13 69 -13 l69 0 0 335 1
335 -69 0 c-59 0 -69 -3 -70 -17z"/>
<path d="M1556 1003 c1 -180 2 -332 3 -337 0 -4 70 -6 154 -4 177 4 224 19
294 93 57 61 84 137 84 240 0 144 -57 247 -169 302 -54 26 -66 28 -212 31
l-155 4 1 -329z m309 176 c115 -68 108 -317 -10 -373 -20 -10 -64 -18 -98 -19
l-62 -2 -1 205 c0 113 1 208 3 211 6 14 134 -3 168 -22z"/>
<path d="M2203 995 l0 -335 219 0 218 0 0 63 0 62 -147 0 -148 0 -3 75 -3 76
128 -1 128 0 3 63 3 62 -131 0 -130 0 0 73 0 72 148 0 147 0 0 60 0 60 -216 3
-216 2 0 -335z"/>
</g>
</svg>
